<svg xmlns="http://www.w3.org/2000/svg" viewBox="0 0 260 200" width="260" height="200" role="img" aria-label="Flat illustration of a local search result with a map pin">
  <g stroke-linecap="round" stroke-linejoin="round">
    <rect x="0" y="168" width="260" height="32" rx="0" fill="#E0D2BB" />
    <line x1="0" y1="168" x2="260" y2="168" stroke="#1E2330" stroke-width="3" stroke-linecap="round" />
    <rect x="24" y="40" width="176" height="114" rx="10" fill="#F4F2ED" stroke="#1E2330" stroke-width="3.4" />
    <line x1="24" y1="66" x2="200" y2="66" stroke="#1E2330" stroke-width="3" stroke-linecap="round" />
    <circle cx="38" cy="53" r="4" fill="#93C845" />
    <circle cx="52" cy="53" r="4" fill="#3F8CCB" />
    <rect x="40" y="82" width="62" height="10" rx="5" fill="#9CC4E2" stroke="#1E2330" stroke-width="2.4" />
    <rect x="40" y="102" width="44" height="10" rx="5" fill="#C7B497" stroke="#1E2330" stroke-width="2.4" />
    <rect x="40" y="122" width="54" height="10" rx="5" fill="#E6E1D4" stroke="#1E2330" stroke-width="2.4" />
    <path d="M 152 74 C 172 74 186 90 186 108 C 186 128 160 150 152 158 C 144 150 118 128 118 108 C 118 90 132 74 152 74 Z" fill="#93C845" stroke="#1E2330" stroke-width="3.4" />
    <circle cx="152" cy="106" r="12" fill="#F4F2ED" stroke="#1E2330" stroke-width="2.8" />
    <circle cx="212" cy="118" r="22" fill="#F1ECE1" stroke="#1E2330" stroke-width="3.4" />
    <line x1="228" y1="134" x2="244" y2="152" stroke="#1E2330" stroke-width="5" stroke-linecap="round" />
  </g>
</svg>
